<?xml version="1.0" encoding="utf-8"?>
<!-- Generator: Adobe Illustrator 19.0.0, SVG Export Plug-In . SVG Version: 6.00 Build 0)  -->
<svg version="1.1" id="Layer_1" xmlns="http://www.w3.org/2000/svg" xmlns:xlink="http://www.w3.org/1999/xlink" x="0px" y="0px"
	 viewBox="0 0 96 96" style="enable-background:new 0 0 96 96;" xml:space="preserve">
<style type="text/css">
	.st0{fill:#ED4C5C;}
	.st1{fill:#FFFFFF;}
	.st2{fill:#428BC1;}
</style>
<g id="XMLID_2_">
	<path id="XMLID_4_" class="st0" d="M65.3,20.5c-5.1-3.1-10.9-5-17.3-5v5H65.3z"/>
	<path id="XMLID_5_" class="st1" d="M48,25.5h23.4c-1.8-1.8-3.9-3.6-6.1-5H48V25.5z"/>
	<path id="XMLID_6_" class="st0" d="M48,30.4h27.4c-1.2-1.8-2.5-3.5-3.9-5H48V30.4z"/>
	<path id="XMLID_7_" class="st1" d="M48,35.4h30c-0.8-1.7-1.6-3.5-2.6-5H48V35.4"/>
	<path id="XMLID_8_" class="st0" d="M48,40.4h31.6c-0.4-1.7-1-3.4-1.6-5H48V40.4z"/>
	<path id="XMLID_9_" class="st1" d="M48,45.5h32.4c-0.1-1.7-0.4-3.4-0.8-5H48V45.5"/>
	<path id="XMLID_10_" class="st0" d="M80.4,45.5H48V48H15.5c0,0.9,0,1.6,0.1,2.5h64.8c0.1-0.9,0.1-1.6,0.1-2.5
		C80.5,47.1,80.5,46.3,80.4,45.5"/>
	<path id="XMLID_11_" class="st1" d="M16.4,55.5h63.3c0.4-1.6,0.6-3.3,0.8-5H15.6C15.7,52.1,16,53.9,16.4,55.5"/>
	<path id="XMLID_12_" class="st0" d="M18,60.5h60c0.6-1.6,1.2-3.3,1.6-5H16.4C16.8,57.2,17.3,58.8,18,60.5"/>
	<path id="XMLID_13_" class="st1" d="M20.6,65.4h54.8c1-1.6,1.8-3.3,2.6-5H18C18.8,62.2,19.6,63.8,20.6,65.4"/>
	<path id="XMLID_14_" class="st0" d="M24.5,70.4h47c1.4-1.5,2.8-3.3,3.9-5H20.6C21.7,67.3,23.1,68.9,24.5,70.4"/>
	<path id="XMLID_15_" class="st1" d="M30.6,75.4h34.9c2.3-1.4,4.2-3.1,6.1-5h-47C26.3,72.4,28.4,74,30.6,75.4"/>
	<path id="XMLID_16_" class="st0" d="M48,80.5c6.4,0,12.3-1.8,17.4-5.1H30.6C35.7,78.7,41.6,80.5,48,80.5"/>
	<path id="XMLID_17_" class="st2" d="M30.7,20.5c-2.3,1.4-4.3,3.1-6.2,5c-1.5,1.5-2.8,3.3-3.9,5c-1,1.6-2,3.3-2.6,5
		c-0.7,1.6-1.2,3.3-1.6,5c-0.4,1.6-0.7,3.3-0.8,5c-0.1,0.9-0.1,1.7-0.1,2.6H48v-2.5v-5.1v-5v-5v-5v-5v-5
		C41.6,15.5,35.8,17.3,30.7,20.5"/>
	<polygon id="XMLID_18_" class="st1" points="40.4,16.6 41,18.2 42.6,18.2 41.3,19.3 41.7,20.9 40.4,19.9 39.1,20.9 39.5,19.3 
		38.3,18.2 39.9,18.2 	"/>
	<polygon id="XMLID_19_" class="st1" points="44.8,23.1 45.3,24.7 46.9,24.7 45.6,25.8 46,27.4 44.8,26.4 43.5,27.4 43.9,25.8 
		42.6,24.7 44.2,24.7 	"/>
	<polygon id="XMLID_20_" class="st1" points="36.1,23.1 36.6,24.7 38.3,24.7 37,25.8 37.4,27.4 36.1,26.4 34.8,27.4 35.2,25.8 
		33.9,24.7 35.5,24.7 	"/>
	<polygon id="XMLID_21_" class="st1" points="40.4,29.6 41,31.2 42.6,31.2 41.3,32.3 41.7,33.9 40.4,32.9 39.1,33.9 39.5,32.3 
		38.3,31.2 39.9,31.2 	"/>
	<polygon id="XMLID_22_" class="st1" points="31.8,29.6 32.3,31.2 33.9,31.2 32.6,32.3 33,33.9 31.8,32.9 30.5,33.9 30.9,32.3 
		29.6,31.2 31.2,31.2 	"/>
	<polygon id="XMLID_23_" class="st1" points="23.1,29.6 23.6,31.2 25.3,31.2 24,32.3 24.4,33.9 23.1,32.9 21.8,33.9 22.2,32.3 
		20.9,31.2 22.5,31.2 	"/>
	<polygon id="XMLID_24_" class="st1" points="44.8,36.1 45.3,37.7 46.9,37.7 45.6,38.8 46,40.4 44.8,39.4 43.5,40.4 43.9,38.8 
		42.6,37.7 44.2,37.7 	"/>
	<polygon id="XMLID_25_" class="st1" points="36.1,36.1 36.6,37.7 38.3,37.7 37,38.8 37.4,40.4 36.1,39.4 34.8,40.4 35.2,38.8 
		33.9,37.7 35.5,37.7 	"/>
	<polygon id="XMLID_26_" class="st1" points="27.4,36.1 28,37.7 29.6,37.7 28.3,38.8 28.7,40.4 27.4,39.4 26.1,40.4 26.5,38.8 
		25.3,37.7 26.9,37.7 	"/>
	<polygon id="XMLID_27_" class="st1" points="40.4,42.6 41,44.2 42.6,44.2 41.3,45.3 41.7,46.9 40.4,45.9 39.1,46.9 39.5,45.3 
		38.3,44.2 39.9,44.2 	"/>
	<polygon id="XMLID_28_" class="st1" points="31.8,42.6 32.3,44.2 33.9,44.2 32.6,45.3 33,46.9 31.8,45.9 30.5,46.9 30.9,45.3 
		29.6,44.2 31.2,44.2 	"/>
	<polygon id="XMLID_29_" class="st1" points="23.1,42.6 23.6,44.2 25.3,44.2 24,45.3 24.4,46.9 23.1,45.9 21.8,46.9 22.2,45.3 
		20.9,44.2 22.5,44.2 	"/>
	<polyline id="XMLID_30_" class="st1" points="26.1,27.4 27.4,26.4 28.7,27.4 28.2,25.8 29.5,24.7 27.8,24.7 27.4,23.1 26.9,24.7 
		25.4,24.7 26.7,25.7 26.1,27.4 	"/>
	<path id="XMLID_31_" class="st1" d="M17.5,40.4l1.3-1l1.3,1l-0.5-1.6l1.3-1.1h-1.5l-0.5-1.6l-0.5,1.6h-1.1c0,0.1-0.1,0.2-0.1,0.3
		l0.9,0.7L17.5,40.4"/>
</g>
</svg>
