<?xml version="1.0" encoding="utf-8"?>
<!-- Generator: Adobe Illustrator 19.0.0, SVG Export Plug-In . SVG Version: 6.00 Build 0)  -->
<svg version="1.1" id="Layer_1" xmlns="http://www.w3.org/2000/svg" xmlns:xlink="http://www.w3.org/1999/xlink" x="0px" y="0px"
	 viewBox="0 0 96 96" style="enable-background:new 0 0 96 96;" xml:space="preserve">
<style type="text/css">
	.st0{fill:#F9F9F9;}
	.st1{fill:#ED4C5C;}
	.st2{fill:#428BC1;}
</style>
<g id="XMLID_2_">
	<path id="XMLID_4_" class="st0" d="M47.9,15.5c-14.1,0-26.1,9.1-30.5,21.7h61.3C74.1,24.6,62.1,15.5,47.9,15.5z"/>
	<path id="XMLID_5_" class="st1" d="M47.9,80.5c14.2,0,26.2-9.1,30.7-21.7H17.3C21.8,71.5,33.8,80.5,47.9,80.5z"/>
	<path id="XMLID_6_" class="st2" d="M17.3,37.2c-1.2,3.4-1.8,7-1.8,10.8s0.7,7.5,1.8,10.8h61.3c1.2-3.4,1.8-7,1.8-10.8
		s-0.7-7.5-1.8-10.8C78.6,37.2,17.3,37.2,17.3,37.2"/>
</g>
</svg>
