<svg fill="#000000" xmlns="http://www.w3.org/2000/svg" viewBox="0 0 50 50" width="500px" height="500px"><path d="M 25 2 C 20.459 2 16.58664 3.9082151 13.982422 6.9453125 C 11.378203 9.9824099 10 14.07975 10 18.5 C 10 22.92025 11.378203 27.017589 13.982422 30.054688 C 16.58664 33.091785 20.459 35 25 35 C 29.531588 35 33.395936 33.098395 36 30.072266 L 36 35 C 36 37.598543 35.181497 39.764071 33.548828 41.339844 C 31.91616 42.915616 29.363725 44 25.5 44 C 17.784314 44 15 39.933333 15 36 L 11 36 C 11 42.066667 16.215686 48 25.5 48 C 30.136275 48 33.83384 46.622274 36.326172 44.216797 C 38.818503 41.811319 40 38.476457 40 35 L 40 18.5 L 40 3 L 36 3 L 36 6.9277344 C 33.395936 3.9016049 29.531588 2 25 2 z M 25 6 C 28.459 6 31.08664 7.3379255 32.982422 9.5488281 C 34.878203 11.759731 36 14.91225 36 18.5 C 36 22.08775 34.878203 25.240269 32.982422 27.451172 C 31.08664 29.662074 28.459 31 25 31 C 21.541 31 18.91336 29.662074 17.017578 27.451172 C 15.121797 25.240269 14 22.08775 14 18.5 C 14 14.91225 15.121797 11.759731 17.017578 9.5488281 C 18.91336 7.3379255 21.541 6 25 6 z"/></svg>